<svg width="400" height="400" viewBox="0 0 400 400" fill="none" xmlns="http://www.w3.org/2000/svg">
  <rect width="400" height="400" fill="#F8FAFC" rx="12"/>
  <text x="200" y="40" text-anchor="middle" font-family="sans-serif" font-weight="bold" font-size="20" fill="#0F172A">How to Use</text>
  
  <!-- Step 1 -->
  <g transform="translate(0, 10)">
    <circle cx="200" cy="80" r="24" fill="#DBEAFE"/>
    <path d="M192 72 H208 M192 80 H208 M192 88 H202" stroke="#2563EB" stroke-width="2.5" stroke-linecap="round"/>
    <text x="200" y="120" text-anchor="middle" font-family="sans-serif" font-weight="500" font-size="14" fill="#334155">1. Select Options</text>
  </g>
  
  <!-- Arrow 1 -->
  <path d="M200 135 L200 155" stroke="#94A3B8" stroke-width="1.5" stroke-linecap="round" stroke-dasharray="4 4"/>
  <path d="M196 151 L200 155 L204 151" stroke="#94A3B8" stroke-width="1.5" stroke-linecap="round" stroke-linejoin="round"/>

  <!-- Step 2 -->
  <g transform="translate(0, 10)">
    <circle cx="200" cy="190" r="24" fill="#DBEAFE"/>
    <circle cx="200" cy="190" r="8" stroke="#2563EB" stroke-width="2.5"/>
    <path d="M206 196 L210 200" stroke="#2563EB" stroke-width="2.5" stroke-linecap="round"/>
    <text x="200" y="230" text-anchor="middle" font-family="sans-serif" font-weight="500" font-size="14" fill="#334155">2. View Availability</text>
  </g>

  <!-- Arrow 2 -->
  <path d="M200 245 L200 265" stroke="#94A3B8" stroke-width="1.5" stroke-linecap="round" stroke-dasharray="4 4"/>
  <path d="M196 261 L200 265 L204 261" stroke="#94A3B8" stroke-width="1.5" stroke-linecap="round" stroke-linejoin="round"/>

  <!-- Step 3 -->
  <g transform="translate(0, 10)">
    <circle cx="200" cy="300" r="24" fill="#DBEAFE"/>
    <path d="M192 300 L198 306 L210 292" stroke="#2563EB" stroke-width="2.5" stroke-linecap="round" stroke-linejoin="round"/>
    <text x="200" y="340" text-anchor="middle" font-family="sans-serif" font-weight="500" font-size="14" fill="#334155">3. Compare Prices</text>
  </g>
</svg>
